<?xml version="1.0" encoding="UTF-8"?>
<svg xmlns="http://www.w3.org/2000/svg" xmlns:xlink="http://www.w3.org/1999/xlink" width="367px" height="289px" viewBox="0 0 366 289" version="1.1">
<defs>
<filter id="alpha" filterUnits="objectBoundingBox" x="0%" y="0%" width="100%" height="100%">
  <feColorMatrix type="matrix" in="SourceGraphic" values="0 0 0 0 1 0 0 0 0 1 0 0 0 0 1 0 0 0 1 0"/>
</filter>
<mask id="mask0">
  <g filter="url(#alpha)">
<rect x="0" y="0" width="366" height="289" style="fill:rgb(0%,0%,0%);fill-opacity:0.701961;stroke:none;"/>
  </g>
</mask>
<clipPath id="clip1">
  <rect x="0" y="0" width="366" height="289"/>
</clipPath>
<g id="surface5" clip-path="url(#clip1)">
<path style=" stroke:none;fill-rule:nonzero;fill:rgb(100%,100%,100%);fill-opacity:1;" d="M 309.503906 121.359375 C 309.503906 121.359375 317.773438 101.78125 310.253906 70.914062 C 302.734375 40.046875 268.148438 38.535156 238.789062 34.773438 C 209.425781 31.011719 207.226562 12.1875 175.644531 9.925781 C 144.066406 7.667969 117 27.246094 111.726562 47.585938 C 106.453125 67.925781 112.480469 78.453125 89.929688 94.265625 C 67.375 110.078125 45.550781 123.625 54.574219 152.992188 C 63.597656 182.359375 86.15625 182.351562 89.917969 201.925781 C 93.679688 221.5 120 245.574219 150.832031 255.386719 C 181.667969 265.199219 202.71875 238.039062 231.292969 239.574219 C 259.867188 241.109375 286.96875 238.804688 300.492188 216.972656 C 314.015625 195.144531 294.472656 174.054688 298.234375 159.003906 C 301.996094 143.953125 306.53125 135.65625 309.503906 121.359375 Z M 309.503906 121.359375 "/>
</g>
<mask id="mask1">
  <g filter="url(#alpha)">
<rect x="0" y="0" width="366" height="289" style="fill:rgb(0%,0%,0%);fill-opacity:0.501961;stroke:none;"/>
  </g>
</mask>
<clipPath id="clip2">
  <rect x="0" y="0" width="366" height="289"/>
</clipPath>
<g id="surface8" clip-path="url(#clip2)">
<path style=" stroke:none;fill-rule:nonzero;fill:rgb(100%,100%,100%);fill-opacity:1;" d="M 300.492188 216.972656 C 306.546875 207.183594 305.984375 197.574219 303.828125 188.539062 C 302.71875 188.457031 301.488281 188.394531 300.085938 188.394531 C 291.105469 188.394531 288.992188 203.738281 283.738281 204.265625 C 278.484375 204.796875 270.515625 196.332031 261.535156 196.332031 C 252.550781 196.332031 240.945312 232.828125 236.707031 235.476562 C 232.46875 238.125 229.308594 233.363281 220.328125 229.660156 C 211.347656 225.957031 199.742188 237.59375 189.15625 241.292969 C 178.574219 244.988281 166.96875 238.652344 163.273438 231.777344 C 159.574219 224.898438 151.117188 204.796875 143.726562 205.320312 C 136.332031 205.847656 128.933594 211.140625 124.707031 206.382812 C 120.480469 201.628906 106.210938 163.007812 100.933594 162.484375 C 97.484375 162.136719 81.679688 171.699219 71.097656 178.382812 C 79.460938 185.902344 87.769531 190.753906 89.917969 201.917969 C 93.675781 221.492188 120 245.566406 150.832031 255.378906 C 181.667969 265.191406 202.71875 238.03125 231.292969 239.566406 C 259.867188 241.101562 286.96875 238.804688 300.492188 216.972656 Z M 300.492188 216.972656 "/>
</g>
<mask id="mask2">
  <g filter="url(#alpha)">
<rect x="0" y="0" width="366" height="289" style="fill:rgb(0%,0%,0%);fill-opacity:0.301961;stroke:none;"/>
  </g>
</mask>
<clipPath id="clip3">
  <rect x="0" y="0" width="366" height="289"/>
</clipPath>
<g id="surface11" clip-path="url(#clip3)">
<path style=" stroke:none;fill-rule:nonzero;fill:rgb(100%,100%,100%);fill-opacity:1;" d="M 279.671875 111.816406 C 278.148438 111.816406 276.910156 113.050781 276.910156 114.574219 C 276.90625 116.101562 278.140625 117.339844 279.664062 117.34375 C 281.1875 117.34375 282.425781 116.109375 282.429688 114.585938 C 282.429688 113.851562 282.140625 113.148438 281.625 112.628906 C 281.109375 112.109375 280.40625 111.816406 279.671875 111.816406 Z M 279.671875 111.816406 "/>
<path style=" stroke:none;fill-rule:nonzero;fill:rgb(100%,100%,100%);fill-opacity:1;" d="M 256.492188 114.828125 C 255.933594 114.828125 255.425781 115.160156 255.210938 115.675781 C 254.992188 116.195312 255.109375 116.789062 255.5 117.1875 C 255.894531 117.585938 256.488281 117.707031 257.007812 117.492188 C 257.523438 117.28125 257.863281 116.777344 257.863281 116.21875 C 257.867188 115.851562 257.722656 115.5 257.464844 115.238281 C 257.207031 114.976562 256.859375 114.832031 256.492188 114.828125 Z M 256.492188 114.828125 "/>
<path style=" stroke:none;fill-rule:nonzero;fill:rgb(100%,100%,100%);fill-opacity:1;" d="M 284.816406 89.351562 C 284.257812 89.351562 283.75 89.683594 283.535156 90.199219 C 283.316406 90.714844 283.433594 91.3125 283.828125 91.710938 C 284.21875 92.109375 284.8125 92.230469 285.332031 92.015625 C 285.847656 91.804688 286.1875 91.300781 286.191406 90.742188 C 286.191406 89.976562 285.578125 89.359375 284.816406 89.351562 Z M 284.816406 89.351562 "/>
<path style=" stroke:none;fill-rule:nonzero;fill:rgb(100%,100%,100%);fill-opacity:1;" d="M 301.484375 112.574219 C 300.925781 112.570312 300.417969 112.90625 300.203125 113.421875 C 299.984375 113.9375 300.101562 114.535156 300.496094 114.933594 C 300.886719 115.328125 301.484375 115.449219 302 115.238281 C 302.519531 115.027344 302.855469 114.523438 302.859375 113.960938 C 302.859375 113.597656 302.71875 113.242188 302.460938 112.984375 C 302.203125 112.722656 301.851562 112.574219 301.484375 112.574219 Z M 301.484375 112.574219 "/>
<path style=" stroke:none;fill-rule:nonzero;fill:rgb(100%,100%,100%);fill-opacity:1;" d="M 259.632812 145.800781 C 258.335938 146.589844 257.921875 148.277344 258.703125 149.582031 C 259.488281 150.882812 261.175781 151.304688 262.476562 150.523438 C 263.78125 149.746094 264.207031 148.058594 263.433594 146.75 C 263.058594 146.117188 262.445312 145.660156 261.730469 145.480469 C 261.019531 145.300781 260.261719 145.414062 259.632812 145.800781 Z M 259.632812 145.800781 "/>
<path style=" stroke:none;fill-rule:nonzero;fill:rgb(100%,100%,100%);fill-opacity:1;" d="M 247.03125 127.910156 C 246.382812 128.300781 246.175781 129.144531 246.566406 129.792969 C 246.953125 130.445312 247.796875 130.65625 248.449219 130.265625 C 249.097656 129.878906 249.308594 129.035156 248.921875 128.382812 C 248.53125 127.730469 247.683594 127.519531 247.03125 127.910156 Z M 247.03125 127.910156 "/>
<path style=" stroke:none;fill-rule:nonzero;fill:rgb(100%,100%,100%);fill-opacity:1;" d="M 283.410156 139.152344 C 282.761719 139.542969 282.550781 140.386719 282.941406 141.039062 C 283.332031 141.6875 284.171875 141.898438 284.824219 141.507812 C 285.472656 141.121094 285.6875 140.277344 285.296875 139.625 C 285.109375 139.3125 284.808594 139.085938 284.453125 138.996094 C 284.097656 138.90625 283.722656 138.960938 283.410156 139.152344 Z M 283.410156 139.152344 "/>
<path style=" stroke:none;fill-rule:nonzero;fill:rgb(100%,100%,100%);fill-opacity:1;" d="M 272.085938 165.394531 C 271.429688 165.785156 271.214844 166.636719 271.609375 167.292969 C 272 167.949219 272.847656 168.164062 273.503906 167.769531 C 274.160156 167.378906 274.371094 166.527344 273.980469 165.871094 C 273.589844 165.21875 272.742188 165.003906 272.085938 165.394531 Z M 272.085938 165.394531 "/>
<path style=" stroke:none;fill-rule:nonzero;fill:rgb(100%,100%,100%);fill-opacity:1;" d="M 102.953125 120.351562 C 101.65625 121.140625 101.242188 122.832031 102.027344 124.132812 C 102.808594 125.433594 104.496094 125.855469 105.796875 125.078125 C 107.101562 124.296875 107.53125 122.613281 106.757812 121.304688 C 106.382812 120.667969 105.769531 120.210938 105.054688 120.03125 C 104.339844 119.851562 103.582031 119.96875 102.953125 120.351562 Z M 102.953125 120.351562 "/>
<path style=" stroke:none;fill-rule:nonzero;fill:rgb(100%,100%,100%);fill-opacity:1;" d="M 90.359375 102.453125 C 89.703125 102.84375 89.484375 103.691406 89.875 104.347656 C 90.261719 105.007812 91.109375 105.222656 91.765625 104.835938 C 92.421875 104.445312 92.640625 103.597656 92.253906 102.941406 C 91.863281 102.285156 91.015625 102.066406 90.359375 102.453125 Z M 90.359375 102.453125 "/>
<path style=" stroke:none;fill-rule:nonzero;fill:rgb(100%,100%,100%);fill-opacity:1;" d="M 126.734375 113.695312 C 126.253906 113.980469 125.988281 114.527344 126.070312 115.082031 C 126.148438 115.636719 126.554688 116.089844 127.097656 116.226562 C 127.636719 116.367188 128.210938 116.164062 128.542969 115.714844 C 128.878906 115.265625 128.910156 114.660156 128.625 114.179688 C 128.4375 113.863281 128.132812 113.636719 127.78125 113.546875 C 127.425781 113.453125 127.050781 113.507812 126.734375 113.695312 Z M 126.734375 113.695312 "/>
<path style=" stroke:none;fill-rule:nonzero;fill:rgb(100%,100%,100%);fill-opacity:1;" d="M 115.402344 139.941406 C 114.757812 140.335938 114.550781 141.179688 114.941406 141.828125 C 115.332031 142.476562 116.171875 142.6875 116.820312 142.300781 C 117.472656 141.910156 117.683594 141.070312 117.296875 140.417969 C 117.109375 140.101562 116.804688 139.875 116.449219 139.785156 C 116.09375 139.695312 115.71875 139.753906 115.402344 139.941406 Z M 115.402344 139.941406 "/>
<path style=" stroke:none;fill-rule:nonzero;fill:rgb(100%,100%,100%);fill-opacity:1;" d="M 77.257812 145.714844 C 75.953125 146.496094 75.527344 148.191406 76.308594 149.496094 C 77.089844 150.804688 78.78125 151.230469 80.085938 150.449219 C 81.394531 149.667969 81.820312 147.972656 81.039062 146.667969 C 80.257812 145.359375 78.566406 144.933594 77.257812 145.714844 Z M 77.257812 145.714844 "/>
<path style=" stroke:none;fill-rule:nonzero;fill:rgb(100%,100%,100%);fill-opacity:1;" d="M 64.664062 127.824219 C 64.011719 128.214844 63.796875 129.0625 64.1875 129.714844 C 64.578125 130.371094 65.425781 130.582031 66.078125 130.191406 C 66.730469 129.800781 66.945312 128.953125 66.550781 128.296875 C 66.160156 127.648438 65.316406 127.4375 64.664062 127.824219 Z M 64.664062 127.824219 "/>
<path style=" stroke:none;fill-rule:nonzero;fill:rgb(100%,100%,100%);fill-opacity:1;" d="M 101.035156 139.066406 C 100.386719 139.460938 100.179688 140.304688 100.574219 140.953125 C 100.964844 141.601562 101.808594 141.8125 102.457031 141.421875 C 103.105469 141.03125 103.316406 140.1875 102.929688 139.535156 C 102.738281 139.222656 102.433594 138.996094 102.078125 138.910156 C 101.722656 138.820312 101.347656 138.878906 101.035156 139.066406 Z M 101.035156 139.066406 "/>
<path style=" stroke:none;fill-rule:nonzero;fill:rgb(100%,100%,100%);fill-opacity:1;" d="M 89.710938 165.285156 C 89.058594 165.675781 88.847656 166.523438 89.238281 167.175781 C 89.628906 167.828125 90.472656 168.042969 91.125 167.652344 C 91.78125 167.261719 91.992188 166.417969 91.605469 165.761719 C 91.214844 165.109375 90.367188 164.894531 89.710938 165.285156 Z M 89.710938 165.285156 "/>
<path style=" stroke:none;fill-rule:nonzero;fill:rgb(100%,100%,100%);fill-opacity:1;" d="M 139.640625 22.03125 C 138.273438 22.699219 137.707031 24.351562 138.375 25.722656 C 139.042969 27.089844 140.691406 27.660156 142.058594 26.992188 C 143.425781 26.324219 143.996094 24.671875 143.328125 23.300781 C 142.660156 21.933594 141.011719 21.367188 139.640625 22.03125 Z M 139.640625 22.03125 "/>
<path style=" stroke:none;fill-rule:nonzero;fill:rgb(100%,100%,100%);fill-opacity:1;" d="M 160.367188 11.625 C 159.683594 11.953125 159.394531 12.773438 159.722656 13.457031 C 160.050781 14.140625 160.871094 14.429688 161.554688 14.105469 C 162.238281 13.777344 162.527344 12.957031 162.203125 12.269531 C 162.203125 12.257812 162.203125 12.246094 162.203125 12.234375 C 161.859375 11.5625 161.042969 11.292969 160.367188 11.625 Z M 160.367188 11.625 "/>
<path style=" stroke:none;fill-rule:nonzero;fill:rgb(100%,100%,100%);fill-opacity:1;" d="M 146.066406 40.929688 C 145.429688 41.292969 145.207031 42.101562 145.5625 42.742188 C 145.917969 43.382812 146.726562 43.617188 147.367188 43.265625 C 148.011719 42.914062 148.25 42.109375 147.90625 41.460938 C 147.5625 40.816406 146.761719 40.566406 146.113281 40.902344 Z M 146.066406 40.929688 "/>
<path style=" stroke:none;fill-rule:nonzero;fill:rgb(100%,100%,100%);fill-opacity:1;" d="M 120.917969 33.425781 C 120.417969 33.675781 120.117188 34.203125 120.15625 34.761719 C 120.195312 35.320312 120.566406 35.800781 121.097656 35.980469 C 121.628906 36.15625 122.214844 35.996094 122.582031 35.570312 C 122.945312 35.148438 123.023438 34.546875 122.769531 34.046875 C 122.429688 33.363281 121.601562 33.085938 120.917969 33.425781 Z M 120.917969 33.425781 "/>
<path style=" stroke:none;fill-rule:nonzero;fill:rgb(100%,100%,100%);fill-opacity:1;" d="M 264.1875 57.257812 C 262.863281 56.511719 261.183594 56.976562 260.433594 58.304688 C 259.6875 59.628906 260.152344 61.3125 261.476562 62.0625 C 262.800781 62.8125 264.480469 62.34375 265.230469 61.019531 C 265.980469 59.691406 265.511719 58.007812 264.1875 57.257812 Z M 264.1875 57.257812 "/>
<path style=" stroke:none;fill-rule:nonzero;fill:rgb(100%,100%,100%);fill-opacity:1;" d="M 242.519531 48.46875 C 241.859375 48.097656 241.023438 48.332031 240.648438 48.992188 C 240.277344 49.652344 240.507812 50.488281 241.167969 50.863281 C 241.828125 51.238281 242.664062 51.007812 243.039062 50.347656 C 243.21875 50.03125 243.265625 49.652344 243.167969 49.300781 C 243.070312 48.949219 242.835938 48.648438 242.519531 48.46875 Z M 242.519531 48.46875 "/>
<path style=" stroke:none;fill-rule:nonzero;fill:rgb(100%,100%,100%);fill-opacity:1;" d="M 274.742188 43.652344 C 274.082031 43.277344 273.242188 43.511719 272.871094 44.171875 C 272.5 44.832031 272.730469 45.671875 273.390625 46.046875 C 274.046875 46.417969 274.886719 46.1875 275.261719 45.527344 C 275.441406 45.210938 275.488281 44.835938 275.390625 44.480469 C 275.292969 44.128906 275.058594 43.828125 274.742188 43.652344 Z M 274.742188 43.652344 "/>
<path style=" stroke:none;fill-rule:nonzero;fill:rgb(100%,100%,100%);fill-opacity:1;" d="M 281.449219 71.058594 C 281.933594 71.335938 282.539062 71.292969 282.980469 70.949219 C 283.421875 70.605469 283.617188 70.03125 283.46875 69.488281 C 283.320312 68.949219 282.859375 68.550781 282.304688 68.484375 C 281.75 68.414062 281.207031 68.6875 280.933594 69.171875 C 280.5625 69.835938 280.792969 70.675781 281.449219 71.058594 Z M 281.449219 71.058594 "/>
</g>
<mask id="mask3">
  <g filter="url(#alpha)">
<rect x="0" y="0" width="366" height="289" style="fill:rgb(0%,0%,0%);fill-opacity:0.2;stroke:none;"/>
  </g>
</mask>
<clipPath id="clip4">
  <rect x="0" y="0" width="366" height="289"/>
</clipPath>
<g id="surface14" clip-path="url(#clip4)">
<path style=" stroke:none;fill-rule:nonzero;fill:rgb(0%,0%,0%);fill-opacity:1;" d="M 267.421875 73.085938 C 267.421875 62.703125 231.3125 54.285156 186.769531 54.285156 C 142.226562 54.285156 106.117188 62.703125 106.117188 73.085938 C 106.117188 83.472656 142.226562 91.890625 186.769531 91.890625 C 231.3125 91.890625 267.421875 83.472656 267.421875 73.085938 Z M 267.421875 73.085938 "/>
</g>
<mask id="mask4">
  <g filter="url(#alpha)">
<rect x="0" y="0" width="366" height="289" style="fill:rgb(0%,0%,0%);fill-opacity:0.301961;stroke:none;"/>
  </g>
</mask>
<clipPath id="clip5">
  <rect x="0" y="0" width="366" height="289"/>
</clipPath>
<g id="surface17" clip-path="url(#clip5)">
<path style=" stroke:none;fill-rule:nonzero;fill:rgb(0%,0%,0%);fill-opacity:1;" d="M 179.496094 176.277344 C 178.9375 176.363281 177.640625 179.109375 176.1875 182.671875 C 175.273438 181.523438 173.367188 178.441406 173.820312 173.074219 C 173.820312 173.074219 173.992188 167.792969 171.5625 165.058594 C 171.707031 162.613281 171.921875 160.46875 171.921875 160.46875 L 171.980469 160.960938 C 172.046875 161.390625 172.152344 161.816406 172.289062 162.230469 C 172.289062 162.230469 176.523438 172.960938 179.496094 176.277344 Z M 179.496094 176.277344 "/>
</g>
<mask id="mask5">
  <g filter="url(#alpha)">
<rect x="0" y="0" width="366" height="289" style="fill:rgb(0%,0%,0%);fill-opacity:0.301961;stroke:none;"/>
  </g>
</mask>
<clipPath id="clip6">
  <rect x="0" y="0" width="366" height="289"/>
</clipPath>
<g id="surface20" clip-path="url(#clip6)">
<path style=" stroke:none;fill-rule:nonzero;fill:rgb(0%,0%,0%);fill-opacity:1;" d="M 193.105469 194.464844 C 192.5 195.480469 192.269531 196.679688 192.453125 197.847656 C 192.691406 199 193.292969 200.046875 194.171875 200.832031 C 194.59375 201.234375 195.078125 201.550781 195.527344 201.984375 C 195.964844 202.410156 196.3125 202.925781 196.546875 203.492188 C 196.78125 204.0625 196.890625 204.671875 196.867188 205.289062 C 196.859375 205.894531 196.769531 206.496094 196.605469 207.082031 C 195.957031 209.34375 195.996094 211.761719 196.308594 214.09375 C 196.355469 214.378906 196.398438 214.675781 196.453125 214.964844 L 196.617188 215.839844 C 196.714844 216.441406 196.65625 217.058594 196.449219 217.632812 C 196.089844 218.769531 196.109375 219.988281 196.507812 221.109375 C 196.050781 219.992188 195.980469 218.757812 196.304688 217.597656 C 196.488281 217.042969 196.53125 216.449219 196.425781 215.875 L 196.242188 215.027344 C 196.183594 214.734375 196.132812 214.441406 196.078125 214.148438 C 195.882812 212.96875 195.796875 211.773438 195.820312 210.578125 C 195.832031 209.375 195.996094 208.179688 196.308594 207.023438 C 196.472656 206.464844 196.5625 205.886719 196.574219 205.304688 C 196.605469 204.726562 196.507812 204.148438 196.289062 203.613281 C 196.074219 203.074219 195.75 202.589844 195.339844 202.179688 C 194.917969 201.789062 194.433594 201.433594 194.003906 201.007812 C 193.125 200.175781 192.53125 199.082031 192.316406 197.886719 C 192.164062 196.6875 192.441406 195.472656 193.105469 194.464844 Z M 193.105469 194.464844 "/>
</g>
<mask id="mask6">
  <g filter="url(#alpha)">
<rect x="0" y="0" width="366" height="289" style="fill:rgb(0%,0%,0%);fill-opacity:0.2;stroke:none;"/>
  </g>
</mask>
<clipPath id="clip7">
  <rect x="0" y="0" width="366" height="289"/>
</clipPath>
<g id="surface23" clip-path="url(#clip7)">
<path style=" stroke:none;fill-rule:nonzero;fill:rgb(0%,0%,0%);fill-opacity:1;" d="M 199.371094 190.832031 C 199.371094 190.832031 204.207031 190.410156 206.675781 189.8125 C 206.675781 189.8125 200.472656 176.582031 199.726562 168.851562 L 193.988281 173.449219 Z M 199.371094 190.832031 "/>
</g>
<mask id="mask7">
  <g filter="url(#alpha)">
<rect x="0" y="0" width="366" height="289" style="fill:rgb(0%,0%,0%);fill-opacity:0.301961;stroke:none;"/>
  </g>
</mask>
<clipPath id="clip8">
  <rect x="0" y="0" width="366" height="289"/>
</clipPath>
<g id="surface26" clip-path="url(#clip8)">
<path style=" stroke:none;fill-rule:nonzero;fill:rgb(0%,0%,0%);fill-opacity:1;" d="M 197.222656 199.925781 C 197.578125 198.679688 198.914062 195.582031 203.390625 195.855469 C 201.859375 191.675781 200.804688 187.335938 200.246094 182.921875 C 200.246094 182.921875 199.734375 172.074219 199.621094 163.6875 C 199.621094 163.6875 200.59375 153.28125 195.636719 151.839844 C 194.828125 151.621094 193.96875 151.683594 193.199219 152.019531 C 191.3125 152.816406 187.640625 155.242188 188.714844 161.976562 C 188.878906 162.953125 188.957031 163.945312 188.953125 164.9375 C 188.921875 168.78125 189.136719 178.871094 192.007812 186.148438 C 192.007812 186.148438 194.894531 196.207031 196.84375 199.984375 C 196.886719 200.058594 196.96875 200.101562 197.054688 200.085938 C 197.136719 200.074219 197.203125 200.007812 197.222656 199.925781 Z M 197.222656 199.925781 "/>
</g>
</defs>
<g id="surface1">
<path style=" stroke:none;fill-rule:nonzero;fill:rgb(66.27451%,40%,64.313725%);fill-opacity:1;" d="M 309.503906 121.359375 C 309.503906 121.359375 317.773438 101.78125 310.253906 70.914062 C 302.734375 40.046875 268.148438 38.535156 238.789062 34.773438 C 209.425781 31.011719 207.226562 12.1875 175.644531 9.925781 C 144.066406 7.667969 117 27.246094 111.726562 47.585938 C 106.453125 67.925781 112.480469 78.453125 89.929688 94.265625 C 67.375 110.078125 45.550781 123.625 54.574219 152.992188 C 63.597656 182.359375 86.15625 182.351562 89.917969 201.925781 C 93.679688 221.5 120 245.574219 150.832031 255.386719 C 181.667969 265.199219 202.71875 238.039062 231.292969 239.574219 C 259.867188 241.109375 286.96875 238.804688 300.492188 216.972656 C 314.015625 195.144531 294.472656 174.054688 298.234375 159.003906 C 301.996094 143.953125 306.53125 135.65625 309.503906 121.359375 Z M 309.503906 121.359375 "/>
<use xlink:href="#surface5" mask="url(#mask0)"/>
<path style=" stroke:none;fill-rule:nonzero;fill:rgb(66.27451%,40%,64.313725%);fill-opacity:1;" d="M 300.492188 216.972656 C 306.546875 207.183594 305.984375 197.574219 303.828125 188.539062 C 302.71875 188.457031 301.488281 188.394531 300.085938 188.394531 C 291.105469 188.394531 288.992188 203.738281 283.738281 204.265625 C 278.484375 204.796875 270.515625 196.332031 261.535156 196.332031 C 252.550781 196.332031 240.945312 232.828125 236.707031 235.476562 C 232.46875 238.125 229.308594 233.363281 220.328125 229.660156 C 211.347656 225.957031 199.742188 237.59375 189.15625 241.292969 C 178.574219 244.988281 166.96875 238.652344 163.273438 231.777344 C 159.574219 224.898438 151.117188 204.796875 143.726562 205.320312 C 136.332031 205.847656 128.933594 211.140625 124.707031 206.382812 C 120.480469 201.628906 106.210938 163.007812 100.933594 162.484375 C 97.484375 162.136719 81.679688 171.699219 71.097656 178.382812 C 79.460938 185.902344 87.769531 190.753906 89.917969 201.917969 C 93.675781 221.492188 120 245.566406 150.832031 255.378906 C 181.667969 265.191406 202.71875 238.03125 231.292969 239.566406 C 259.867188 241.101562 286.96875 238.804688 300.492188 216.972656 Z M 300.492188 216.972656 "/>
<use xlink:href="#surface8" mask="url(#mask1)"/>
<path style=" stroke:none;fill-rule:nonzero;fill:rgb(66.27451%,40%,64.313725%);fill-opacity:1;" d="M 279.671875 111.816406 C 278.148438 111.816406 276.910156 113.050781 276.910156 114.574219 C 276.90625 116.101562 278.140625 117.339844 279.664062 117.34375 C 281.1875 117.34375 282.425781 116.109375 282.429688 114.585938 C 282.429688 113.851562 282.140625 113.148438 281.625 112.628906 C 281.109375 112.109375 280.40625 111.816406 279.671875 111.816406 Z M 279.671875 111.816406 "/>
<path style=" stroke:none;fill-rule:nonzero;fill:rgb(66.27451%,40%,64.313725%);fill-opacity:1;" d="M 256.492188 114.828125 C 255.933594 114.828125 255.425781 115.160156 255.210938 115.675781 C 254.992188 116.195312 255.109375 116.789062 255.5 117.1875 C 255.894531 117.585938 256.488281 117.707031 257.007812 117.492188 C 257.523438 117.28125 257.863281 116.777344 257.863281 116.21875 C 257.867188 115.851562 257.722656 115.5 257.464844 115.238281 C 257.207031 114.976562 256.859375 114.832031 256.492188 114.828125 Z M 256.492188 114.828125 "/>
<path style=" stroke:none;fill-rule:nonzero;fill:rgb(66.27451%,40%,64.313725%);fill-opacity:1;" d="M 284.816406 89.351562 C 284.257812 89.351562 283.75 89.683594 283.535156 90.199219 C 283.316406 90.714844 283.433594 91.3125 283.828125 91.710938 C 284.21875 92.109375 284.8125 92.230469 285.332031 92.015625 C 285.847656 91.804688 286.1875 91.300781 286.191406 90.742188 C 286.191406 89.976562 285.578125 89.359375 284.816406 89.351562 Z M 284.816406 89.351562 "/>
<path style=" stroke:none;fill-rule:nonzero;fill:rgb(66.27451%,40%,64.313725%);fill-opacity:1;" d="M 301.484375 112.574219 C 300.925781 112.570312 300.417969 112.90625 300.203125 113.421875 C 299.984375 113.9375 300.101562 114.535156 300.496094 114.933594 C 300.886719 115.328125 301.484375 115.449219 302 115.238281 C 302.519531 115.027344 302.855469 114.523438 302.859375 113.960938 C 302.859375 113.597656 302.71875 113.242188 302.460938 112.984375 C 302.203125 112.722656 301.851562 112.574219 301.484375 112.574219 Z M 301.484375 112.574219 "/>
<path style=" stroke:none;fill-rule:nonzero;fill:rgb(66.27451%,40%,64.313725%);fill-opacity:1;" d="M 259.632812 145.800781 C 258.335938 146.589844 257.921875 148.277344 258.703125 149.582031 C 259.488281 150.882812 261.175781 151.304688 262.476562 150.523438 C 263.78125 149.746094 264.207031 148.058594 263.433594 146.75 C 263.058594 146.117188 262.445312 145.660156 261.730469 145.480469 C 261.019531 145.300781 260.261719 145.414062 259.632812 145.800781 Z M 259.632812 145.800781 "/>
<path style=" stroke:none;fill-rule:nonzero;fill:rgb(66.27451%,40%,64.313725%);fill-opacity:1;" d="M 247.03125 127.910156 C 246.382812 128.300781 246.175781 129.144531 246.566406 129.792969 C 246.953125 130.445312 247.796875 130.65625 248.449219 130.265625 C 249.097656 129.878906 249.308594 129.035156 248.921875 128.382812 C 248.53125 127.730469 247.683594 127.519531 247.03125 127.910156 Z M 247.03125 127.910156 "/>
<path style=" stroke:none;fill-rule:nonzero;fill:rgb(66.27451%,40%,64.313725%);fill-opacity:1;" d="M 283.410156 139.152344 C 282.761719 139.542969 282.550781 140.386719 282.941406 141.039062 C 283.332031 141.6875 284.171875 141.898438 284.824219 141.507812 C 285.472656 141.121094 285.6875 140.277344 285.296875 139.625 C 285.109375 139.3125 284.808594 139.085938 284.453125 138.996094 C 284.097656 138.90625 283.722656 138.960938 283.410156 139.152344 Z M 283.410156 139.152344 "/>
<path style=" stroke:none;fill-rule:nonzero;fill:rgb(66.27451%,40%,64.313725%);fill-opacity:1;" d="M 272.085938 165.394531 C 271.429688 165.785156 271.214844 166.636719 271.609375 167.292969 C 272 167.949219 272.847656 168.164062 273.503906 167.769531 C 274.160156 167.378906 274.371094 166.527344 273.980469 165.871094 C 273.589844 165.21875 272.742188 165.003906 272.085938 165.394531 Z M 272.085938 165.394531 "/>
<path style=" stroke:none;fill-rule:nonzero;fill:rgb(66.27451%,40%,64.313725%);fill-opacity:1;" d="M 102.953125 120.351562 C 101.65625 121.140625 101.242188 122.832031 102.027344 124.132812 C 102.808594 125.433594 104.496094 125.855469 105.796875 125.078125 C 107.101562 124.296875 107.53125 122.613281 106.757812 121.304688 C 106.382812 120.667969 105.769531 120.210938 105.054688 120.03125 C 104.339844 119.851562 103.582031 119.96875 102.953125 120.351562 Z M 102.953125 120.351562 "/>
<path style=" stroke:none;fill-rule:nonzero;fill:rgb(66.27451%,40%,64.313725%);fill-opacity:1;" d="M 90.359375 102.453125 C 89.703125 102.84375 89.484375 103.691406 89.875 104.347656 C 90.261719 105.007812 91.109375 105.222656 91.765625 104.835938 C 92.421875 104.445312 92.640625 103.597656 92.253906 102.941406 C 91.863281 102.285156 91.015625 102.066406 90.359375 102.453125 Z M 90.359375 102.453125 "/>
<path style=" stroke:none;fill-rule:nonzero;fill:rgb(66.27451%,40%,64.313725%);fill-opacity:1;" d="M 126.734375 113.695312 C 126.253906 113.980469 125.988281 114.527344 126.070312 115.082031 C 126.148438 115.636719 126.554688 116.089844 127.097656 116.226562 C 127.636719 116.367188 128.210938 116.164062 128.542969 115.714844 C 128.878906 115.265625 128.910156 114.660156 128.625 114.179688 C 128.4375 113.863281 128.132812 113.636719 127.78125 113.546875 C 127.425781 113.453125 127.050781 113.507812 126.734375 113.695312 Z M 126.734375 113.695312 "/>
<path style=" stroke:none;fill-rule:nonzero;fill:rgb(66.27451%,40%,64.313725%);fill-opacity:1;" d="M 115.402344 139.941406 C 114.757812 140.335938 114.550781 141.179688 114.941406 141.828125 C 115.332031 142.476562 116.171875 142.6875 116.820312 142.300781 C 117.472656 141.910156 117.683594 141.070312 117.296875 140.417969 C 117.109375 140.101562 116.804688 139.875 116.449219 139.785156 C 116.09375 139.695312 115.71875 139.753906 115.402344 139.941406 Z M 115.402344 139.941406 "/>
<path style=" stroke:none;fill-rule:nonzero;fill:rgb(66.27451%,40%,64.313725%);fill-opacity:1;" d="M 77.257812 145.714844 C 75.953125 146.496094 75.527344 148.191406 76.308594 149.496094 C 77.089844 150.804688 78.78125 151.230469 80.085938 150.449219 C 81.394531 149.667969 81.820312 147.972656 81.039062 146.667969 C 80.257812 145.359375 78.566406 144.933594 77.257812 145.714844 Z M 77.257812 145.714844 "/>
<path style=" stroke:none;fill-rule:nonzero;fill:rgb(66.27451%,40%,64.313725%);fill-opacity:1;" d="M 64.664062 127.824219 C 64.011719 128.214844 63.796875 129.0625 64.1875 129.714844 C 64.578125 130.371094 65.425781 130.582031 66.078125 130.191406 C 66.730469 129.800781 66.945312 128.953125 66.550781 128.296875 C 66.160156 127.648438 65.316406 127.4375 64.664062 127.824219 Z M 64.664062 127.824219 "/>
<path style=" stroke:none;fill-rule:nonzero;fill:rgb(66.27451%,40%,64.313725%);fill-opacity:1;" d="M 101.035156 139.066406 C 100.386719 139.460938 100.179688 140.304688 100.574219 140.953125 C 100.964844 141.601562 101.808594 141.8125 102.457031 141.421875 C 103.105469 141.03125 103.316406 140.1875 102.929688 139.535156 C 102.738281 139.222656 102.433594 138.996094 102.078125 138.910156 C 101.722656 138.820312 101.347656 138.878906 101.035156 139.066406 Z M 101.035156 139.066406 "/>
<path style=" stroke:none;fill-rule:nonzero;fill:rgb(66.27451%,40%,64.313725%);fill-opacity:1;" d="M 89.710938 165.285156 C 89.058594 165.675781 88.847656 166.523438 89.238281 167.175781 C 89.628906 167.828125 90.472656 168.042969 91.125 167.652344 C 91.78125 167.261719 91.992188 166.417969 91.605469 165.761719 C 91.214844 165.109375 90.367188 164.894531 89.710938 165.285156 Z M 89.710938 165.285156 "/>
<path style=" stroke:none;fill-rule:nonzero;fill:rgb(66.27451%,40%,64.313725%);fill-opacity:1;" d="M 139.640625 22.03125 C 138.273438 22.699219 137.707031 24.351562 138.375 25.722656 C 139.042969 27.089844 140.691406 27.660156 142.058594 26.992188 C 143.425781 26.324219 143.996094 24.671875 143.328125 23.300781 C 142.660156 21.933594 141.011719 21.367188 139.640625 22.03125 Z M 139.640625 22.03125 "/>
<path style=" stroke:none;fill-rule:nonzero;fill:rgb(66.27451%,40%,64.313725%);fill-opacity:1;" d="M 160.367188 11.625 C 159.683594 11.953125 159.394531 12.773438 159.722656 13.457031 C 160.050781 14.140625 160.871094 14.429688 161.554688 14.105469 C 162.238281 13.777344 162.527344 12.957031 162.203125 12.269531 C 162.203125 12.257812 162.203125 12.246094 162.203125 12.234375 C 161.859375 11.5625 161.042969 11.292969 160.367188 11.625 Z M 160.367188 11.625 "/>
<path style=" stroke:none;fill-rule:nonzero;fill:rgb(66.27451%,40%,64.313725%);fill-opacity:1;" d="M 146.066406 40.929688 C 145.429688 41.292969 145.207031 42.101562 145.5625 42.742188 C 145.917969 43.382812 146.726562 43.617188 147.367188 43.265625 C 148.011719 42.914062 148.25 42.109375 147.90625 41.460938 C 147.5625 40.816406 146.761719 40.566406 146.113281 40.902344 Z M 146.066406 40.929688 "/>
<path style=" stroke:none;fill-rule:nonzero;fill:rgb(66.27451%,40%,64.313725%);fill-opacity:1;" d="M 120.917969 33.425781 C 120.417969 33.675781 120.117188 34.203125 120.15625 34.761719 C 120.195312 35.320312 120.566406 35.800781 121.097656 35.980469 C 121.628906 36.15625 122.214844 35.996094 122.582031 35.570312 C 122.945312 35.148438 123.023438 34.546875 122.769531 34.046875 C 122.429688 33.363281 121.601562 33.085938 120.917969 33.425781 Z M 120.917969 33.425781 "/>
<path style=" stroke:none;fill-rule:nonzero;fill:rgb(66.27451%,40%,64.313725%);fill-opacity:1;" d="M 264.1875 57.257812 C 262.863281 56.511719 261.183594 56.976562 260.433594 58.304688 C 259.6875 59.628906 260.152344 61.3125 261.476562 62.0625 C 262.800781 62.8125 264.480469 62.34375 265.230469 61.019531 C 265.980469 59.691406 265.511719 58.007812 264.1875 57.257812 Z M 264.1875 57.257812 "/>
<path style=" stroke:none;fill-rule:nonzero;fill:rgb(66.27451%,40%,64.313725%);fill-opacity:1;" d="M 242.519531 48.46875 C 241.859375 48.097656 241.023438 48.332031 240.648438 48.992188 C 240.277344 49.652344 240.507812 50.488281 241.167969 50.863281 C 241.828125 51.238281 242.664062 51.007812 243.039062 50.347656 C 243.21875 50.03125 243.265625 49.652344 243.167969 49.300781 C 243.070312 48.949219 242.835938 48.648438 242.519531 48.46875 Z M 242.519531 48.46875 "/>
<path style=" stroke:none;fill-rule:nonzero;fill:rgb(66.27451%,40%,64.313725%);fill-opacity:1;" d="M 274.742188 43.652344 C 274.082031 43.277344 273.242188 43.511719 272.871094 44.171875 C 272.5 44.832031 272.730469 45.671875 273.390625 46.046875 C 274.046875 46.417969 274.886719 46.1875 275.261719 45.527344 C 275.441406 45.210938 275.488281 44.835938 275.390625 44.480469 C 275.292969 44.128906 275.058594 43.828125 274.742188 43.652344 Z M 274.742188 43.652344 "/>
<path style=" stroke:none;fill-rule:nonzero;fill:rgb(66.27451%,40%,64.313725%);fill-opacity:1;" d="M 281.449219 71.058594 C 281.933594 71.335938 282.539062 71.292969 282.980469 70.949219 C 283.421875 70.605469 283.617188 70.03125 283.46875 69.488281 C 283.320312 68.949219 282.859375 68.550781 282.304688 68.484375 C 281.75 68.414062 281.207031 68.6875 280.933594 69.171875 C 280.5625 69.835938 280.792969 70.675781 281.449219 71.058594 Z M 281.449219 71.058594 "/>
<use xlink:href="#surface11" mask="url(#mask2)"/>
<path style=" stroke:none;fill-rule:nonzero;fill:rgb(80.784314%,51.372549%,74.117647%);fill-opacity:1;" d="M 221.769531 59.855469 C 221.769531 44.75 206.097656 32.503906 186.769531 32.503906 C 167.441406 32.503906 151.773438 44.75 151.773438 59.855469 C 151.773438 74.960938 167.441406 87.207031 186.769531 87.207031 C 206.097656 87.207031 221.769531 74.960938 221.769531 59.855469 Z M 221.769531 59.855469 "/>
<path style="fill:none;stroke-width:1.24;stroke-linecap:round;stroke-linejoin:round;stroke:rgb(100%,100%,100%);stroke-opacity:1;stroke-miterlimit:4;" d="M 500.351242 100.847372 C 512.671704 111.63926 520.158256 125.846886 520.158256 141.457734 C 520.158256 175.181228 485.156314 202.516368 441.946892 202.516368 C 398.73747 202.516368 363.735528 175.181228 363.735528 141.457734 C 363.735528 120.381704 377.423903 101.807472 398.219881 90.840182 " transform="matrix(0.422633,0,0,0.423133,0,-0.000000000000024052)"/>
<path style="fill-rule:nonzero;fill:rgb(14.901961%,19.607843%,21.960784%);fill-opacity:1;stroke-width:1.24;stroke-linecap:round;stroke-linejoin:round;stroke:rgb(100%,100%,100%);stroke-opacity:1;stroke-miterlimit:4;" d="M 407.998613 86.418185 C 414.302105 84.064095 420.836663 82.383921 427.500619 81.423821 " transform="matrix(0.422633,0,0,0.423133,0,-0.000000000000024052)"/>
<path style=" stroke:none;fill-rule:nonzero;fill:rgb(66.27451%,40%,64.313725%);fill-opacity:1;" d="M 243.375 66.308594 C 243.375 55.925781 218.03125 47.503906 186.769531 47.503906 C 155.507812 47.503906 130.167969 55.925781 130.167969 66.308594 C 130.167969 76.695312 155.507812 85.113281 186.769531 85.113281 C 218.03125 85.113281 243.375 76.695312 243.375 66.308594 Z M 243.375 66.308594 "/>
<path style=" stroke:none;fill-rule:nonzero;fill:rgb(66.27451%,40%,64.313725%);fill-opacity:1;" d="M 267.421875 73.085938 C 267.421875 62.703125 231.3125 54.285156 186.769531 54.285156 C 142.226562 54.285156 106.117188 62.703125 106.117188 73.085938 C 106.117188 83.472656 142.226562 91.890625 186.769531 91.890625 C 231.3125 91.890625 267.421875 83.472656 267.421875 73.085938 Z M 267.421875 73.085938 "/>
<use xlink:href="#surface14" mask="url(#mask3)"/>
<path style=" stroke:none;fill-rule:nonzero;fill:rgb(80.784314%,51.372549%,74.117647%);fill-opacity:1;" d="M 279.9375 78.101562 C 279.9375 67.714844 238.226562 59.296875 186.769531 59.296875 C 135.3125 59.296875 93.601562 67.714844 93.601562 78.101562 C 93.601562 88.488281 135.3125 96.90625 186.769531 96.90625 C 238.226562 96.90625 279.9375 88.488281 279.9375 78.101562 Z M 279.9375 78.101562 "/>
<path style=" stroke:none;fill-rule:nonzero;fill:rgb(66.27451%,40%,64.313725%);fill-opacity:1;" d="M 256.601562 78.097656 C 256.601562 70.839844 225.359375 64.957031 186.820312 64.957031 C 148.28125 64.957031 117.039062 70.839844 117.039062 78.097656 C 117.039062 85.355469 148.28125 91.238281 186.820312 91.238281 C 225.359375 91.238281 256.601562 85.355469 256.601562 78.097656 Z M 256.601562 78.097656 "/>
<path style="fill-rule:nonzero;fill:rgb(14.901961%,19.607843%,21.960784%);fill-opacity:1;stroke-width:1.24;stroke-linecap:round;stroke-linejoin:round;stroke:rgb(14.901961%,19.607843%,21.960784%);stroke-opacity:1;stroke-miterlimit:4;" d="M 515.398288 184.579125 C 515.398288 176.399816 482.503671 169.771437 441.919164 169.771437 C 401.334657 169.771437 368.44004 176.399816 368.44004 184.579125 C 368.44004 192.758434 401.334657 199.386813 441.919164 199.386813 C 482.503671 199.386813 515.398288 192.758434 515.398288 184.579125 Z M 515.398288 184.579125 " transform="matrix(0.422633,0,0,0.423133,0,-0.000000000000024052)"/>
<path style=" stroke:none;fill-rule:nonzero;fill:rgb(100%,100%,100%);fill-opacity:1;" d="M 194.222656 63.90625 C 194.222656 63.007812 190.90625 62.28125 186.820312 62.28125 C 182.734375 62.28125 179.421875 63.007812 179.421875 63.90625 C 179.421875 64.804688 182.734375 65.53125 186.820312 65.53125 C 190.90625 65.53125 194.222656 64.804688 194.222656 63.90625 Z M 194.222656 63.90625 "/>
<path style=" stroke:none;fill-rule:nonzero;fill:rgb(100%,100%,100%);fill-opacity:1;" d="M 118.257812 77.988281 C 118.257812 78.59375 115.992188 79.105469 113.183594 79.105469 C 110.378906 79.105469 108.113281 78.601562 108.113281 77.988281 C 108.113281 77.375 110.382812 76.871094 113.183594 76.871094 C 115.988281 76.871094 118.257812 77.382812 118.257812 77.988281 Z M 118.257812 77.988281 "/>
<path style=" stroke:none;fill-rule:nonzero;fill:rgb(100%,100%,100%);fill-opacity:1;" d="M 266.988281 77.988281 C 266.988281 78.59375 264.71875 79.105469 261.917969 79.105469 C 259.117188 79.105469 256.871094 78.59375 256.871094 77.988281 C 256.871094 77.382812 259.136719 76.871094 261.945312 76.871094 C 264.75 76.871094 266.988281 77.382812 266.988281 77.988281 Z M 266.988281 77.988281 "/>
<path style=" stroke:none;fill-rule:nonzero;fill:rgb(100%,100%,100%);fill-opacity:1;" d="M 239.425781 69.101562 C 239.425781 68.261719 236.332031 67.578125 232.511719 67.578125 C 228.691406 67.578125 225.597656 68.261719 225.597656 69.101562 C 225.597656 69.941406 228.691406 70.625 232.511719 70.625 C 236.332031 70.625 239.425781 69.941406 239.425781 69.101562 Z M 239.425781 69.101562 "/>
<path style=" stroke:none;fill-rule:nonzero;fill:rgb(100%,100%,100%);fill-opacity:1;" d="M 153.449219 69.101562 C 153.449219 68.261719 150.355469 67.578125 146.535156 67.578125 C 142.714844 67.578125 139.621094 68.261719 139.621094 69.101562 C 139.621094 69.941406 142.714844 70.625 146.535156 70.625 C 150.355469 70.625 153.449219 69.941406 153.449219 69.101562 Z M 153.449219 69.101562 "/>
<path style=" stroke:none;fill-rule:nonzero;fill:rgb(100%,100%,100%);fill-opacity:1;" d="M 237.574219 86.910156 C 237.574219 86.292969 235.308594 85.792969 232.511719 85.792969 C 229.714844 85.792969 227.449219 86.292969 227.449219 86.910156 C 227.449219 87.527344 229.714844 88.027344 232.511719 88.027344 C 235.308594 88.027344 237.574219 87.527344 237.574219 86.910156 Z M 237.574219 86.910156 "/>
<path style=" stroke:none;fill-rule:nonzero;fill:rgb(100%,100%,100%);fill-opacity:1;" d="M 151.597656 86.910156 C 151.597656 86.292969 149.332031 85.792969 146.535156 85.792969 C 143.738281 85.792969 141.472656 86.292969 141.472656 86.910156 C 141.472656 87.527344 143.738281 88.027344 146.535156 88.027344 C 149.332031 88.027344 151.597656 87.527344 151.597656 86.910156 Z M 151.597656 86.910156 "/>
<path style=" stroke:none;fill-rule:nonzero;fill:rgb(80.784314%,51.372549%,74.117647%);fill-opacity:1;" d="M 129.007812 168.265625 L 128.945312 168.265625 C 128.886719 168.25 128.835938 168.210938 128.808594 168.15625 C 128.777344 168.105469 128.773438 168.042969 128.789062 167.984375 L 130.480469 162.058594 C 130.515625 161.9375 130.644531 161.867188 130.765625 161.902344 C 130.824219 161.921875 130.875 161.960938 130.902344 162.011719 C 130.933594 162.066406 130.941406 162.128906 130.921875 162.1875 L 129.207031 168.109375 C 129.179688 168.199219 129.101562 168.261719 129.007812 168.265625 Z M 129.007812 168.265625 "/>
<path style=" stroke:none;fill-rule:nonzero;fill:rgb(80.784314%,51.372549%,74.117647%);fill-opacity:1;" d="M 132.5 156.261719 C 132.476562 156.265625 132.453125 156.265625 132.433594 156.261719 C 132.375 156.246094 132.324219 156.207031 132.296875 156.152344 C 132.265625 156.101562 132.257812 156.039062 132.277344 155.980469 L 145.800781 109.433594 C 145.804688 109.339844 145.867188 109.253906 145.957031 109.226562 C 146.046875 109.195312 146.148438 109.226562 146.207031 109.300781 C 146.265625 109.375 146.273438 109.480469 146.222656 109.5625 L 132.707031 156.097656 C 132.679688 156.191406 132.597656 156.257812 132.5 156.261719 Z M 132.5 156.261719 "/>
<path style=" stroke:none;fill-rule:nonzero;fill:rgb(80.784314%,51.372549%,74.117647%);fill-opacity:1;" d="M 147.5 104.632812 L 147.433594 104.632812 C 147.3125 104.59375 147.242188 104.46875 147.277344 104.34375 L 154.074219 80.820312 C 154.089844 80.757812 154.128906 80.710938 154.183594 80.679688 C 154.238281 80.648438 154.300781 80.644531 154.359375 80.660156 C 154.480469 80.695312 154.550781 80.824219 154.519531 80.945312 L 147.699219 104.457031 C 147.671875 104.550781 147.59375 104.621094 147.5 104.632812 Z M 147.5 104.632812 "/>
<path style=" stroke:none;fill-rule:nonzero;fill:rgb(80.784314%,51.372549%,74.117647%);fill-opacity:1;" d="M 247.089844 165.253906 C 246.988281 165.253906 246.902344 165.191406 246.867188 165.097656 L 217.609375 78.179688 C 217.59375 78.070312 217.65625 77.964844 217.761719 77.929688 C 217.863281 77.894531 217.976562 77.9375 218.03125 78.03125 L 247.289062 164.949219 C 247.3125 165.007812 247.308594 165.070312 247.28125 165.125 C 247.253906 165.179688 247.207031 165.222656 247.148438 165.242188 Z M 247.089844 165.253906 "/>
<path style=" stroke:none;fill-rule:nonzero;fill:rgb(80.784314%,51.372549%,74.117647%);fill-opacity:1;" d="M 161.59375 123.976562 L 161.550781 123.976562 C 161.425781 123.953125 161.34375 123.835938 161.367188 123.710938 L 168.175781 85.734375 C 168.195312 85.609375 168.316406 85.527344 168.441406 85.550781 C 168.566406 85.570312 168.648438 85.691406 168.625 85.816406 L 161.816406 123.792969 C 161.796875 123.898438 161.703125 123.976562 161.59375 123.976562 Z M 161.59375 123.976562 "/>
<path style=" stroke:none;fill-rule:nonzero;fill:rgb(80.784314%,51.372549%,74.117647%);fill-opacity:1;" d="M 221.40625 153.664062 C 221.292969 153.664062 221.199219 153.585938 221.179688 153.476562 L 209.023438 85.796875 C 209.011719 85.738281 209.023438 85.675781 209.058594 85.625 C 209.09375 85.578125 209.148438 85.542969 209.207031 85.53125 C 209.265625 85.519531 209.328125 85.535156 209.378906 85.570312 C 209.429688 85.605469 209.464844 85.65625 209.472656 85.71875 L 221.632812 153.394531 C 221.652344 153.519531 221.570312 153.636719 221.445312 153.660156 Z M 221.40625 153.664062 "/>
<path style="fill:none;stroke-width:1.24;stroke-linecap:round;stroke-linejoin:round;stroke:rgb(14.901961%,19.607843%,21.960784%);stroke-opacity:1;stroke-miterlimit:4;" d="M 441.919164 391.379014 L 441.919164 409.787076 " transform="matrix(0.422633,0,0,0.423133,0,-0.000000000000024052)"/>
<path style="fill-rule:nonzero;fill:rgb(100%,100%,100%);fill-opacity:1;stroke-width:1.24;stroke-linecap:butt;stroke-linejoin:miter;stroke:rgb(14.901961%,19.607843%,21.960784%);stroke-opacity:1;stroke-miterlimit:10;" d="M 441.919164 169.771437 C 427.861083 169.697583 413.812244 170.593061 399.874317 172.430174 C 403.922601 180.831045 421.650017 187.164008 442.871158 187.164008 C 464.092298 187.164008 481.468494 180.960289 485.747844 172.688662 C 471.22763 170.657683 456.578018 169.67912 441.919164 169.771437 Z M 441.919164 169.771437 " transform="matrix(0.422633,0,0,0.423133,0,-0.000000000000024052)"/>
<path style=" stroke:none;fill-rule:nonzero;fill:rgb(66.27451%,40%,64.313725%);fill-opacity:1;" d="M 189.339844 261.527344 L 186.101562 265.183594 C 186.101562 265.183594 184.835938 266.875 186.949219 269.238281 L 193.566406 275.757812 C 193.566406 275.757812 198.898438 280.882812 201.460938 278.640625 C 201.460938 278.640625 202.726562 278 200.289062 274.578125 C 200.289062 274.578125 195.96875 270.699219 197.542969 266.242188 C 197.554688 266.242188 194.617188 265.136719 189.339844 261.527344 Z M 189.339844 261.527344 "/>
<path style=" stroke:none;fill-rule:nonzero;fill:rgb(66.27451%,40%,64.313725%);fill-opacity:1;" d="M 173.820312 255.058594 C 173.820312 255.058594 169.042969 258.777344 170.4375 261.019531 L 174.386719 264.96875 C 175.625 266.6875 177.230469 268.109375 179.082031 269.132812 C 179.082031 269.132812 182.917969 271.910156 184.09375 272.230469 C 184.09375 272.230469 185.785156 272.132812 185.054688 270.371094 C 185.054688 270.371094 180.847656 261.839844 181.441406 259.277344 C 181.433594 259.277344 178.167969 258.828125 173.820312 255.058594 Z M 173.820312 255.058594 "/>
<path style=" stroke:none;fill-rule:nonzero;fill:rgb(97.647059%,70.588235%,60%);fill-opacity:1;" d="M 186.839844 140.828125 C 186.628906 141.851562 186.78125 142.921875 187.265625 143.847656 L 188.511719 146.269531 L 186.046875 149.832031 L 177.367188 151.699219 L 176.691406 148.925781 L 179.058594 142.042969 L 185.710938 140.828125 Z M 186.839844 140.828125 "/>
<path style=" stroke:none;fill-rule:nonzero;fill:rgb(96.862745%,64.313725%,54.509804%);fill-opacity:1;" d="M 186.839844 140.828125 C 186.347656 141.476562 185.621094 141.910156 184.816406 142.042969 C 184.816406 142.042969 185.628906 143.402344 187.03125 143.359375 C 187.03125 143.359375 186.472656 141.84375 186.839844 140.828125 Z M 186.839844 140.828125 "/>
<path style=" stroke:none;fill-rule:nonzero;fill:rgb(66.27451%,40%,64.313725%);fill-opacity:1;" d="M 179.496094 176.277344 C 178.9375 176.363281 177.640625 179.109375 176.1875 182.671875 C 173.410156 189.441406 170.046875 199.199219 170.046875 199.199219 C 169.15625 201.378906 165.203125 199.199219 165.203125 199.199219 C 163.933594 199 164.015625 198.40625 164.015625 198.40625 L 165.707031 192.273438 C 167.78125 182.472656 169.363281 179.011719 169.363281 179.011719 C 170.449219 176.632812 171.441406 169.804688 171.441406 169.804688 C 171.398438 168.453125 171.46875 166.683594 171.570312 165.046875 C 171.714844 162.601562 171.929688 160.457031 171.929688 160.457031 L 171.992188 160.945312 C 172.058594 161.378906 172.160156 161.804688 172.300781 162.214844 C 172.300781 162.214844 176.523438 172.960938 179.496094 176.277344 Z M 179.496094 176.277344 "/>
<path style=" stroke:none;fill-rule:nonzero;fill:rgb(97.647059%,70.588235%,60%);fill-opacity:1;" d="M 165.203125 199.199219 C 165.203125 199.199219 163.03125 202.859375 164.609375 206.125 C 164.609375 206.125 165.816406 209.695312 169.023438 209.085938 C 169.265625 209.039062 169.453125 208.851562 169.496094 208.609375 C 169.542969 208.367188 169.4375 208.125 169.230469 207.992188 C 168.863281 207.765625 168.472656 207.574219 168.070312 207.425781 C 167.449219 206.945312 167.15625 206.152344 167.316406 205.382812 C 167.335938 205.28125 167.402344 205.195312 167.496094 205.148438 C 167.589844 205.101562 167.699219 205.101562 167.792969 205.144531 C 168.109375 205.28125 168.472656 205.226562 168.734375 205.003906 C 168.820312 204.949219 168.882812 204.859375 168.898438 204.761719 C 168.917969 204.660156 168.894531 204.558594 168.832031 204.476562 C 168.351562 203.882812 168.148438 203.113281 168.265625 202.359375 L 168.367188 200.183594 C 168.367188 200.183594 166.390625 199.988281 165.203125 199.199219 Z M 165.203125 199.199219 "/>
<path style=" stroke:none;fill-rule:nonzero;fill:rgb(80.784314%,51.372549%,74.117647%);fill-opacity:1;" d="M 186.804688 191.621094 C 186.875 196.101562 187.265625 200.574219 187.972656 205 C 187.972656 205 187.078125 218.066406 186.804688 220.96875 C 186.804688 220.96875 185.472656 222.289062 185.601562 225.199219 C 185.601562 225.199219 179.609375 229.921875 176.90625 246.78125 C 176.839844 247.21875 176.664062 247.632812 176.402344 247.988281 C 176.027344 248.523438 175.800781 249.148438 175.742188 249.796875 C 175.710938 250.121094 175.5625 250.421875 175.320312 250.644531 C 175.128906 250.804688 174.9375 251.25 174.898438 252.382812 C 174.871094 253.378906 174.480469 254.332031 173.804688 255.066406 C 173.804688 255.066406 177.949219 258.871094 180.914062 259.171875 C 180.914062 259.171875 182.53125 260.308594 182.007812 256.726562 C 182.007812 256.726562 183.835938 255.066406 182.429688 252.183594 C 182.429688 252.183594 182.339844 250.871094 183.476562 250.4375 C 183.476562 250.4375 184.582031 250.117188 184.839844 246.253906 C 184.867188 245.816406 184.949219 245.382812 185.085938 244.964844 C 186.054688 241.996094 187.199219 239.089844 188.515625 236.261719 C 189.441406 234.324219 190.753906 232.59375 192.371094 231.183594 C 193.601562 230.121094 195.578125 227.675781 196.390625 222.550781 C 196.390625 222.550781 197.960938 226.570312 194.730469 234.34375 C 192.65625 240.640625 191.550781 247.21875 191.453125 253.851562 C 191.449219 254.613281 191.25 255.363281 190.882812 256.035156 C 190.421875 256.878906 189.910156 258.175781 190.363281 259.285156 C 190.363281 259.285156 191.367188 259.605469 189.359375 261.527344 C 189.359375 261.527344 194.160156 264.910156 197.5625 266.242188 C 197.5625 266.242188 198.433594 267.554688 198.089844 264.410156 C 198.089844 264.410156 198.171875 262.296875 199.132812 261.789062 C 199.132812 261.789062 200.617188 259.867188 199.132812 257.332031 C 199.132812 257.332031 198.621094 255.238281 199.792969 254.101562 C 199.792969 254.101562 200.433594 254.023438 200.449219 251.894531 C 200.449219 251.5625 200.511719 251.230469 200.636719 250.917969 C 201.421875 248.980469 204.292969 241.609375 204.367188 237.066406 C 204.367188 237.066406 205.589844 236.800781 205.066406 234.949219 C 205.066406 234.949219 206.550781 233.8125 206.550781 230.839844 C 206.550781 230.839844 207.550781 228.65625 207.792969 222.632812 C 207.792969 222.632812 210.015625 218.34375 212.121094 204.152344 C 212.121094 204.152344 213.210938 195.757812 211.101562 188.226562 L 208.644531 185.066406 L 190.355469 190.675781 L 187.695312 188.929688 Z M 186.804688 191.621094 "/>
<path style=" stroke:none;fill-rule:nonzero;fill:rgb(97.647059%,70.588235%,60%);fill-opacity:1;" d="M 184.816406 142.042969 L 179.007812 141.691406 L 176.144531 141.519531 C 176.144531 141.519531 172.523438 134.929688 172.867188 134.820312 C 173.207031 134.707031 175.148438 133.449219 175.148438 133.449219 C 175.148438 133.449219 175.425781 133.398438 175.835938 133.34375 C 176.65625 133.242188 178.015625 133.140625 178.839844 133.449219 C 178.839844 133.449219 180.53125 131.996094 181.660156 134.367188 C 181.660156 134.367188 186.394531 135.605469 187.183594 138.203125 C 187.183594 138.203125 187.972656 141.589844 184.816406 142.042969 Z M 184.816406 142.042969 "/>
<path style=" stroke:none;fill-rule:nonzero;fill:rgb(96.862745%,64.313725%,54.509804%);fill-opacity:1;" d="M 182.449219 143.867188 C 182.765625 144.367188 182.945312 144.941406 182.964844 145.53125 C 183 146.070312 183.433594 146.496094 183.972656 146.515625 C 184.824219 146.515625 185.671875 146.4375 186.507812 146.28125 L 180.769531 150.597656 L 177.953125 150.464844 C 177.953125 150.464844 177.628906 146.925781 177.953125 146.859375 C 178.277344 146.796875 180.328125 142.875 180.328125 142.875 C 180.328125 142.875 180.78125 143.734375 182.449219 143.867188 Z M 182.449219 143.867188 "/>
<use xlink:href="#surface17" mask="url(#mask4)"/>
<use xlink:href="#surface20" mask="url(#mask5)"/>
<path style=" stroke:none;fill-rule:nonzero;fill:rgb(66.27451%,40%,64.313725%);fill-opacity:1;" d="M 209.792969 188.984375 C 203.621094 191.160156 186.816406 191.621094 186.816406 191.621094 C 186.054688 187.605469 186.210938 184.972656 186.457031 183.515625 C 186.554688 182.863281 186.128906 182.242188 185.484375 182.09375 C 182.386719 181.363281 179.496094 176.277344 179.496094 176.277344 C 176.539062 172.960938 172.3125 162.199219 172.3125 162.199219 C 172.167969 161.785156 172.066406 161.363281 172 160.929688 C 171.207031 155.929688 176.195312 152.796875 176.195312 152.796875 C 175.859375 151.878906 176.882812 150.964844 176.882812 150.964844 C 177.773438 150.496094 178.644531 150.085938 179.359375 149.765625 C 180.402344 149.285156 181.390625 148.707031 182.320312 148.039062 C 185.132812 146.070312 187.496094 146.15625 187.496094 146.15625 C 188.300781 145.46875 190.347656 147.871094 190.347656 147.871094 C 192.605469 148.265625 194.683594 149.34375 196.300781 150.964844 C 202.132812 157.375 204.078125 166.417969 204.078125 166.417969 C 207.960938 173.515625 211.734375 184.847656 211.734375 184.847656 C 213.226562 187.839844 209.792969 188.984375 209.792969 188.984375 Z M 209.792969 188.984375 "/>
<path style=" stroke:none;fill-rule:nonzero;fill:rgb(97.647059%,70.588235%,60%);fill-opacity:1;" d="M 197.222656 199.925781 C 197.222656 199.925781 197.792969 205.125 200.992188 206.84375 C 202.449219 207.996094 204.210938 208.699219 206.0625 208.867188 C 206.789062 208.941406 207.46875 208.515625 207.722656 207.832031 C 207.910156 207.238281 207.714844 206.59375 207.234375 206.207031 C 207.234375 206.207031 203.339844 203.136719 203.328125 199.828125 C 203.328125 199.742188 203.386719 199.667969 203.472656 199.652344 C 203.554688 199.636719 203.640625 199.683594 203.671875 199.761719 C 204.195312 201.179688 205.457031 204.050781 207.050781 203.933594 C 207.050781 203.933594 208.101562 203.78125 207.445312 202.664062 C 207.445312 202.664062 206.070312 201.027344 205.871094 199.453125 C 205.871094 199.453125 205.292969 197.09375 203.421875 195.851562 C 203.390625 195.855469 198.542969 195.152344 197.222656 199.925781 Z M 197.222656 199.925781 "/>
<path style=" stroke:none;fill-rule:nonzero;fill:rgb(96.862745%,64.313725%,54.509804%);fill-opacity:1;" d="M 206.667969 208.800781 C 206.070312 208.511719 205.503906 208.164062 204.976562 207.761719 C 204.441406 207.363281 203.9375 206.921875 203.476562 206.4375 C 203.238281 206.203125 203.023438 205.941406 202.804688 205.695312 C 202.585938 205.445312 202.382812 205.171875 202.210938 204.886719 C 201.835938 204.335938 201.515625 203.75 201.261719 203.132812 C 201.457031 203.398438 201.613281 203.691406 201.816406 203.953125 L 202.097656 204.355469 C 202.195312 204.492188 202.300781 204.617188 202.402344 204.746094 C 202.804688 205.261719 203.238281 205.757812 203.695312 206.226562 C 204.148438 206.703125 204.625 207.152344 205.125 207.578125 C 205.371094 207.792969 205.628906 208 205.890625 208.203125 C 206.152344 208.40625 206.40625 208.605469 206.667969 208.800781 Z M 206.667969 208.800781 "/>
<use xlink:href="#surface23" mask="url(#mask6)"/>
<path style=" stroke:none;fill-rule:nonzero;fill:rgb(96.862745%,64.313725%,54.509804%);fill-opacity:1;" d="M 180.078125 140.800781 L 179.007812 141.691406 L 176.144531 141.519531 C 176.144531 141.519531 172.523438 134.929688 172.867188 134.820312 C 173.207031 134.707031 175.148438 133.449219 175.148438 133.449219 C 175.148438 133.449219 175.425781 133.398438 175.835938 133.34375 C 175.835938 133.34375 176.640625 134.984375 176.679688 135.878906 C 176.699219 135.894531 181.257812 134.320312 180.078125 140.800781 Z M 180.078125 140.800781 "/>
<path style=" stroke:none;fill-rule:nonzero;fill:rgb(80.784314%,51.372549%,74.117647%);fill-opacity:1;" d="M 170.527344 133.371094 C 169.128906 135.421875 164.96875 142.445312 169.371094 147.800781 C 169.371094 147.800781 172.980469 151.230469 176.867188 150.980469 L 179.34375 149.78125 L 181.578125 146.316406 C 181.945312 145.746094 181.910156 145.011719 181.488281 144.484375 C 180.699219 143.515625 179.636719 141.914062 180.078125 140.796875 C 180.078125 140.796875 180.644531 134.589844 176.023438 136.734375 C 176.023438 136.734375 175.246094 129.820312 171.796875 132.082031 C 171.292969 132.421875 170.859375 132.859375 170.527344 133.371094 Z M 170.527344 133.371094 "/>
<path style=" stroke:none;fill-rule:nonzero;fill:rgb(97.647059%,70.588235%,60%);fill-opacity:1;" d="M 184.539062 142.042969 C 184.539062 141.042969 183.480469 140.234375 182.171875 140.234375 C 180.863281 140.234375 179.804688 141.042969 179.804688 142.042969 C 179.804688 143.039062 180.863281 143.847656 182.171875 143.847656 C 183.480469 143.847656 184.539062 143.039062 184.539062 142.042969 Z M 184.539062 142.042969 "/>
<path style=" stroke:none;fill-rule:nonzero;fill:rgb(96.862745%,64.313725%,54.509804%);fill-opacity:1;" d="M 182.992188 142.042969 C 182.992188 141.714844 182.625 141.453125 182.171875 141.453125 C 181.71875 141.453125 181.351562 141.714844 181.351562 142.042969 C 181.351562 142.367188 181.71875 142.628906 182.171875 142.628906 C 182.625 142.628906 182.992188 142.367188 182.992188 142.042969 Z M 182.992188 142.042969 "/>
<path style=" stroke:none;fill-rule:nonzero;fill:rgb(66.27451%,40%,64.313725%);fill-opacity:1;" d="M 197.222656 199.925781 C 197.578125 198.679688 198.914062 195.582031 203.390625 195.855469 C 201.859375 191.675781 200.804688 187.335938 200.246094 182.921875 C 200.246094 182.921875 199.734375 172.074219 199.621094 163.6875 C 199.621094 163.6875 200.59375 153.28125 195.636719 151.839844 C 194.828125 151.621094 193.96875 151.683594 193.199219 152.019531 C 191.3125 152.816406 187.640625 155.242188 188.714844 161.976562 C 188.878906 162.953125 188.957031 163.945312 188.953125 164.9375 C 188.921875 168.78125 189.136719 178.871094 192.007812 186.148438 C 192.007812 186.148438 194.894531 196.207031 196.84375 199.984375 C 196.886719 200.058594 196.96875 200.101562 197.054688 200.085938 C 197.136719 200.074219 197.203125 200.007812 197.222656 199.925781 Z M 197.222656 199.925781 "/>
<use xlink:href="#surface26" mask="url(#mask7)"/>
<path style=" stroke:none;fill-rule:nonzero;fill:rgb(96.862745%,64.313725%,54.509804%);fill-opacity:1;" d="M 167.992188 208.871094 C 167.5625 208.671875 167.171875 208.398438 166.835938 208.0625 C 166.492188 207.730469 166.199219 207.347656 165.964844 206.933594 C 165.847656 206.722656 165.742188 206.503906 165.65625 206.28125 C 165.570312 206.058594 165.503906 205.824219 165.460938 205.585938 C 165.363281 205.121094 165.359375 204.644531 165.441406 204.175781 C 165.53125 204.625 165.652344 205.066406 165.800781 205.5 C 165.945312 205.921875 166.128906 206.328125 166.347656 206.714844 C 166.804688 207.496094 167.359375 208.222656 167.992188 208.871094 Z M 167.992188 208.871094 "/>
</g>
</svg>
